<svg xmlns="http://www.w3.org/2000/svg" xmlns:xlink="http://www.w3.org/1999/xlink" width="500" zoomAndPan="magnify" viewBox="0 0 375 374.999991" height="500" preserveAspectRatio="xMidYMid meet" version="1.0"><defs><g/><clipPath id="d764ec847c"><path d="M 133 157 L 184.703125 157 L 184.703125 175 L 133 175 Z M 133 157 " clip-rule="nonzero"/></clipPath><clipPath id="e37c09728b"><path d="M 175 151 L 184.703125 151 L 184.703125 161 L 175 161 Z M 175 151 " clip-rule="nonzero"/></clipPath><clipPath id="aacb8ca0e9"><path d="M 168 143.6875 L 174 143.6875 L 174 149 L 168 149 Z M 168 143.6875 " clip-rule="nonzero"/></clipPath></defs><path fill="#6f8e74" d="M 146.800781 158.6875 C 155.417969 155.066406 164.246094 154.472656 171.304688 156.445312 C 163.28125 152.859375 152.125 152.957031 141.289062 157.507812 C 124.101562 164.726562 114.234375 180.398438 119.246094 192.519531 C 122.941406 201.449219 133.691406 205.949219 145.972656 204.808594 C 130.976562 201.25 127.601562 194.59375 126.25 191.316406 C 121.578125 180.023438 130.777344 165.410156 146.800781 158.6875 Z M 146.800781 158.6875 " fill-opacity="1" fill-rule="nonzero"/><g clip-path="url(#d764ec847c)"><path fill="#a4b509" d="M 183.007812 167.484375 C 182.0625 165.199219 180.542969 163.273438 178.597656 161.738281 C 172.191406 156.667969 161.136719 155.816406 150.457031 160.296875 C 142.613281 163.59375 136.648438 169.0625 133.664062 174.96875 C 137.222656 170.402344 142.453125 166.359375 148.855469 163.671875 C 162.265625 158.042969 176.230469 160.234375 182.136719 168.335938 C 182.824219 169.28125 183.414062 170.300781 183.867188 171.398438 C 183.921875 171.53125 183.960938 171.664062 184.011719 171.792969 C 183.90625 170.316406 183.582031 168.875 183.007812 167.484375 Z M 183.007812 167.484375 " fill-opacity="1" fill-rule="nonzero"/></g><g clip-path="url(#e37c09728b)"><path fill="#a4b509" d="M 184.65625 156.421875 C 181.359375 157.035156 180.867188 157.53125 180.257812 160.855469 C 179.652344 157.53125 179.160156 157.035156 175.859375 156.421875 C 179.160156 155.808594 179.652344 155.316406 180.257812 151.992188 C 180.867188 155.320312 181.359375 155.816406 184.65625 156.421875 Z M 184.65625 156.421875 " fill-opacity="1" fill-rule="nonzero"/></g><g clip-path="url(#aacb8ca0e9)"><path fill="#a4b509" d="M 173.691406 146.203125 C 172.050781 146.675781 171.667969 147.0625 171.195312 148.714844 C 170.726562 147.0625 170.339844 146.675781 168.699219 146.203125 C 170.339844 145.726562 170.726562 145.339844 171.195312 143.6875 C 171.667969 145.339844 172.050781 145.726562 173.691406 146.203125 Z M 173.691406 146.203125 " fill-opacity="1" fill-rule="nonzero"/></g><path fill="#6f8e74" d="M 180.257812 147.886719 C 179.4375 148.125 179.246094 148.316406 179.007812 149.144531 C 178.773438 148.316406 178.582031 148.125 177.761719 147.886719 C 178.582031 147.644531 178.773438 147.453125 179.007812 146.625 C 179.246094 147.453125 179.4375 147.644531 180.257812 147.886719 Z M 180.257812 147.886719 " fill-opacity="1" fill-rule="nonzero"/><g fill="#6f8e74" fill-opacity="1"><g transform="translate(146.538218, 191.93334)"><g><path d="M 1.0625 -14.65625 L 6.3125 -14.65625 C 7.71875 -14.65625 8.863281 -14.28125 9.75 -13.53125 C 10.632812 -12.78125 11.078125 -11.703125 11.078125 -10.296875 C 11.078125 -9.222656 10.804688 -8.320312 10.265625 -7.59375 C 9.734375 -6.863281 9.003906 -6.351562 8.078125 -6.0625 L 13.125 0 L 8.875 0 L 4.40625 -5.796875 L 4.40625 0 L 1.0625 0 Z M 4.40625 -8.15625 L 4.796875 -8.15625 C 5.109375 -8.15625 5.367188 -8.160156 5.578125 -8.171875 C 5.785156 -8.179688 6.023438 -8.222656 6.296875 -8.296875 C 6.578125 -8.367188 6.800781 -8.46875 6.96875 -8.59375 C 7.132812 -8.726562 7.273438 -8.921875 7.390625 -9.171875 C 7.503906 -9.421875 7.5625 -9.722656 7.5625 -10.078125 C 7.5625 -10.429688 7.503906 -10.734375 7.390625 -10.984375 C 7.273438 -11.234375 7.132812 -11.421875 6.96875 -11.546875 C 6.800781 -11.679688 6.578125 -11.78125 6.296875 -11.84375 C 6.023438 -11.914062 5.785156 -11.957031 5.578125 -11.96875 C 5.367188 -11.976562 5.109375 -11.984375 4.796875 -11.984375 L 4.40625 -11.984375 Z M 4.40625 -8.15625 "/></g></g></g><g fill="#6f8e74" fill-opacity="1"><g transform="translate(159.251965, 191.93334)"><g><path d="M 6.453125 -12.09375 C 5.972656 -12.09375 5.515625 -11.859375 5.078125 -11.390625 C 4.648438 -10.921875 4.335938 -10.457031 4.140625 -10 L 3.84375 -9.3125 L 1.046875 -10.65625 C 1.078125 -10.78125 1.132812 -10.9375 1.21875 -11.125 C 1.300781 -11.3125 1.5 -11.648438 1.8125 -12.140625 C 2.125 -12.628906 2.460938 -13.0625 2.828125 -13.4375 C 3.203125 -13.8125 3.710938 -14.148438 4.359375 -14.453125 C 5.003906 -14.765625 5.703125 -14.921875 6.453125 -14.921875 C 7.410156 -14.921875 8.242188 -14.796875 8.953125 -14.546875 C 9.671875 -14.304688 10.222656 -14.003906 10.609375 -13.640625 C 11.003906 -13.285156 11.320312 -12.863281 11.5625 -12.375 C 11.8125 -11.882812 11.96875 -11.4375 12.03125 -11.03125 C 12.101562 -10.625 12.140625 -10.203125 12.140625 -9.765625 C 12.140625 -9.128906 11.957031 -8.457031 11.59375 -7.75 C 11.238281 -7.050781 10.8125 -6.425781 10.3125 -5.875 C 9.8125 -5.320312 9.304688 -4.816406 8.796875 -4.359375 C 8.285156 -3.898438 7.851562 -3.546875 7.5 -3.296875 L 6.96875 -2.9375 L 12.40625 -2.9375 L 12.40625 0 L 0.984375 0 L 0.984375 -0.828125 C 1.179688 -0.992188 1.453125 -1.222656 1.796875 -1.515625 C 2.140625 -1.804688 2.742188 -2.359375 3.609375 -3.171875 C 4.472656 -3.992188 5.234375 -4.765625 5.890625 -5.484375 C 6.554688 -6.203125 7.160156 -6.96875 7.703125 -7.78125 C 8.253906 -8.59375 8.53125 -9.253906 8.53125 -9.765625 C 8.53125 -9.972656 8.507812 -10.175781 8.46875 -10.375 C 8.425781 -10.570312 8.34375 -10.816406 8.21875 -11.109375 C 8.101562 -11.398438 7.890625 -11.632812 7.578125 -11.8125 C 7.273438 -12 6.898438 -12.09375 6.453125 -12.09375 Z M 6.453125 -12.09375 "/></g></g></g><g fill="#6f8e74" fill-opacity="1"><g transform="translate(172.622709, 191.93334)"><g><path d="M 4.40625 -5.875 L 4.40625 0 L 1.0625 0 L 1.0625 -14.65625 L 4.40625 -14.65625 L 4.40625 -8.8125 L 9.125 -8.8125 L 9.125 -14.65625 L 12.46875 -14.65625 L 12.46875 0 L 9.125 0 L 9.125 -5.875 Z M 4.40625 -5.875 "/></g></g></g><g fill="#6f8e74" fill-opacity="1"><g transform="translate(186.153266, 191.93334)"><g/></g></g><g fill="#a4b509" fill-opacity="1"><g transform="translate(190.990808, 191.93334)"><g><path d="M 8.515625 -14.65625 L 14.421875 0 L 10.84375 0 L 9.75 -2.9375 L 4.171875 -2.9375 L 3.09375 0 L -0.5 0 L 5.421875 -14.65625 Z M 8.609375 -5.859375 L 6.984375 -10.125 L 6.953125 -10.125 L 5.3125 -5.859375 Z M 8.609375 -5.859375 "/></g></g></g><g fill="#a4b509" fill-opacity="1"><g transform="translate(204.912012, 191.93334)"><g><path d="M 4.40625 -14.65625 L 4.40625 0 L 1.0625 0 L 1.0625 -14.65625 Z M 4.40625 -14.65625 "/></g></g></g><g fill="#a4b509" fill-opacity="1"><g transform="translate(210.381058, 191.93334)"><g><path d="M 1.0625 -14.65625 L 6.3125 -14.65625 C 7.71875 -14.65625 8.863281 -14.28125 9.75 -13.53125 C 10.632812 -12.78125 11.078125 -11.703125 11.078125 -10.296875 C 11.078125 -9.222656 10.804688 -8.320312 10.265625 -7.59375 C 9.734375 -6.863281 9.003906 -6.351562 8.078125 -6.0625 L 13.125 0 L 8.875 0 L 4.40625 -5.796875 L 4.40625 0 L 1.0625 0 Z M 4.40625 -8.15625 L 4.796875 -8.15625 C 5.109375 -8.15625 5.367188 -8.160156 5.578125 -8.171875 C 5.785156 -8.179688 6.023438 -8.222656 6.296875 -8.296875 C 6.578125 -8.367188 6.800781 -8.46875 6.96875 -8.59375 C 7.132812 -8.726562 7.273438 -8.921875 7.390625 -9.171875 C 7.503906 -9.421875 7.5625 -9.722656 7.5625 -10.078125 C 7.5625 -10.429688 7.503906 -10.734375 7.390625 -10.984375 C 7.273438 -11.234375 7.132812 -11.421875 6.96875 -11.546875 C 6.800781 -11.679688 6.578125 -11.78125 6.296875 -11.84375 C 6.023438 -11.914062 5.785156 -11.957031 5.578125 -11.96875 C 5.367188 -11.976562 5.109375 -11.984375 4.796875 -11.984375 L 4.40625 -11.984375 Z M 4.40625 -8.15625 "/></g></g></g><g fill="#5b5b5b" fill-opacity="1"><g transform="translate(148.999782, 201.960647)"><g><path d="M 0.734375 -1.234375 L 0.734375 0 L 0.34375 0 L 0.34375 -3.140625 L 1.34375 -3.140625 C 1.632812 -3.140625 1.863281 -3.050781 2.03125 -2.875 C 2.195312 -2.707031 2.28125 -2.476562 2.28125 -2.1875 C 2.28125 -1.882812 2.195312 -1.648438 2.03125 -1.484375 C 1.875 -1.316406 1.65625 -1.234375 1.375 -1.234375 Z M 0.734375 -1.5625 L 1.34375 -1.5625 C 1.519531 -1.5625 1.65625 -1.613281 1.75 -1.71875 C 1.84375 -1.832031 1.890625 -1.984375 1.890625 -2.171875 C 1.890625 -2.367188 1.835938 -2.519531 1.734375 -2.625 C 1.640625 -2.738281 1.507812 -2.796875 1.34375 -2.796875 L 0.734375 -2.796875 Z M 0.734375 -1.5625 "/></g></g></g><g fill="#5b5b5b" fill-opacity="1"><g transform="translate(152.436466, 201.960647)"><g><path d="M 2.390625 -1.296875 C 2.390625 -0.867188 2.296875 -0.535156 2.109375 -0.296875 C 1.921875 -0.0664062 1.660156 0.046875 1.328125 0.046875 C 1.003906 0.046875 0.75 -0.0625 0.5625 -0.28125 C 0.375 -0.507812 0.273438 -0.832031 0.265625 -1.25 L 0.265625 -1.84375 C 0.265625 -2.257812 0.359375 -2.585938 0.546875 -2.828125 C 0.734375 -3.066406 0.992188 -3.1875 1.328125 -3.1875 C 1.660156 -3.1875 1.914062 -3.070312 2.09375 -2.84375 C 2.28125 -2.613281 2.378906 -2.289062 2.390625 -1.875 Z M 1.984375 -1.84375 C 1.984375 -2.175781 1.925781 -2.421875 1.8125 -2.578125 C 1.707031 -2.742188 1.546875 -2.828125 1.328125 -2.828125 C 1.109375 -2.828125 0.941406 -2.742188 0.828125 -2.578125 C 0.722656 -2.421875 0.664062 -2.179688 0.65625 -1.859375 L 0.65625 -1.296875 C 0.65625 -0.972656 0.710938 -0.726562 0.828125 -0.5625 C 0.941406 -0.394531 1.109375 -0.3125 1.328125 -0.3125 C 1.546875 -0.3125 1.707031 -0.390625 1.8125 -0.546875 C 1.925781 -0.703125 1.984375 -0.9375 1.984375 -1.25 Z M 1.984375 -1.84375 "/></g></g></g><g fill="#5b5b5b" fill-opacity="1"><g transform="translate(156.07853, 201.960647)"><g><path d="M 0.734375 -0.34375 L 1.96875 -0.34375 L 1.96875 0 L 0.34375 0 L 0.34375 -3.140625 L 0.734375 -3.140625 Z M 0.734375 -0.34375 "/></g></g></g><g fill="#5b5b5b" fill-opacity="1"><g transform="translate(159.164986, 201.960647)"><g><path d="M 0.734375 -0.34375 L 1.96875 -0.34375 L 1.96875 0 L 0.34375 0 L 0.34375 -3.140625 L 0.734375 -3.140625 Z M 0.734375 -0.34375 "/></g></g></g><g fill="#5b5b5b" fill-opacity="1"><g transform="translate(162.251441, 201.960647)"><g><path d="M 2.21875 -3.140625 L 2.21875 -0.90625 C 2.207031 -0.613281 2.117188 -0.378906 1.953125 -0.203125 C 1.785156 -0.0351562 1.550781 0.046875 1.25 0.046875 C 0.9375 0.046875 0.695312 -0.0351562 0.53125 -0.203125 C 0.363281 -0.367188 0.28125 -0.601562 0.28125 -0.90625 L 0.28125 -3.140625 L 0.671875 -3.140625 L 0.671875 -0.921875 C 0.671875 -0.710938 0.710938 -0.554688 0.796875 -0.453125 C 0.890625 -0.347656 1.039062 -0.296875 1.25 -0.296875 C 1.445312 -0.296875 1.585938 -0.347656 1.671875 -0.453125 C 1.765625 -0.554688 1.8125 -0.710938 1.8125 -0.921875 L 1.8125 -3.140625 Z M 2.21875 -3.140625 "/></g></g></g><g fill="#5b5b5b" fill-opacity="1"><g transform="translate(165.720554, 201.960647)"><g><path d="M 2.171875 -2.796875 L 1.34375 -2.796875 L 1.34375 0 L 0.953125 0 L 0.953125 -2.796875 L 0.125 -2.796875 L 0.125 -3.140625 L 2.171875 -3.140625 Z M 2.171875 -2.796875 "/></g></g></g><g fill="#5b5b5b" fill-opacity="1"><g transform="translate(169.008068, 201.960647)"><g><path d="M 0.75 0 L 0.359375 0 L 0.359375 -3.140625 L 0.75 -3.140625 Z M 0.75 0 "/></g></g></g><g fill="#5b5b5b" fill-opacity="1"><g transform="translate(171.097886, 201.960647)"><g><path d="M 2.390625 -1.296875 C 2.390625 -0.867188 2.296875 -0.535156 2.109375 -0.296875 C 1.921875 -0.0664062 1.660156 0.046875 1.328125 0.046875 C 1.003906 0.046875 0.75 -0.0625 0.5625 -0.28125 C 0.375 -0.507812 0.273438 -0.832031 0.265625 -1.25 L 0.265625 -1.84375 C 0.265625 -2.257812 0.359375 -2.585938 0.546875 -2.828125 C 0.734375 -3.066406 0.992188 -3.1875 1.328125 -3.1875 C 1.660156 -3.1875 1.914062 -3.070312 2.09375 -2.84375 C 2.28125 -2.613281 2.378906 -2.289062 2.390625 -1.875 Z M 1.984375 -1.84375 C 1.984375 -2.175781 1.925781 -2.421875 1.8125 -2.578125 C 1.707031 -2.742188 1.546875 -2.828125 1.328125 -2.828125 C 1.109375 -2.828125 0.941406 -2.742188 0.828125 -2.578125 C 0.722656 -2.421875 0.664062 -2.179688 0.65625 -1.859375 L 0.65625 -1.296875 C 0.65625 -0.972656 0.710938 -0.726562 0.828125 -0.5625 C 0.941406 -0.394531 1.109375 -0.3125 1.328125 -0.3125 C 1.546875 -0.3125 1.707031 -0.390625 1.8125 -0.546875 C 1.925781 -0.703125 1.984375 -0.9375 1.984375 -1.25 Z M 1.984375 -1.84375 "/></g></g></g><g fill="#5b5b5b" fill-opacity="1"><g transform="translate(174.739951, 201.960647)"><g><path d="M 2.390625 0 L 2 0 L 0.734375 -2.421875 L 0.734375 0 L 0.34375 0 L 0.34375 -3.140625 L 0.734375 -3.140625 L 2 -0.703125 L 2 -3.140625 L 2.390625 -3.140625 Z M 2.390625 0 "/></g></g></g><g fill="#5b5b5b" fill-opacity="1"><g transform="translate(178.464169, 201.960647)"><g/></g></g><g fill="#5b5b5b" fill-opacity="1"><g transform="translate(180.461026, 201.960647)"><g><path d="M 0.34375 0 L 0.34375 -3.140625 L 1.09375 -3.140625 C 1.457031 -3.140625 1.738281 -3.023438 1.9375 -2.796875 C 2.144531 -2.566406 2.25 -2.242188 2.25 -1.828125 L 2.25 -1.296875 C 2.25 -0.890625 2.144531 -0.570312 1.9375 -0.34375 C 1.726562 -0.113281 1.429688 0 1.046875 0 Z M 0.734375 -2.796875 L 0.734375 -0.34375 L 1.046875 -0.34375 C 1.328125 -0.34375 1.53125 -0.421875 1.65625 -0.578125 C 1.789062 -0.734375 1.859375 -0.96875 1.859375 -1.28125 L 1.859375 -1.84375 C 1.859375 -2.175781 1.789062 -2.414062 1.65625 -2.5625 C 1.53125 -2.71875 1.34375 -2.796875 1.09375 -2.796875 Z M 0.734375 -2.796875 "/></g></g></g><g fill="#5b5b5b" fill-opacity="1"><g transform="translate(183.971215, 201.960647)"><g><path d="M 1.8125 -0.828125 L 0.75 -0.828125 L 0.5 0 L 0.09375 0 L 1.109375 -3.140625 L 1.4375 -3.140625 L 2.453125 0 L 2.046875 0 Z M 0.84375 -1.15625 L 1.703125 -1.15625 L 1.28125 -2.59375 Z M 0.84375 -1.15625 "/></g></g></g><g fill="#5b5b5b" fill-opacity="1"><g transform="translate(187.505185, 201.960647)"><g><path d="M 2.171875 -2.796875 L 1.34375 -2.796875 L 1.34375 0 L 0.953125 0 L 0.953125 -2.796875 L 0.125 -2.796875 L 0.125 -3.140625 L 2.171875 -3.140625 Z M 2.171875 -2.796875 "/></g></g></g><g fill="#5b5b5b" fill-opacity="1"><g transform="translate(190.792698, 201.960647)"><g><path d="M 1.8125 -0.828125 L 0.75 -0.828125 L 0.5 0 L 0.09375 0 L 1.109375 -3.140625 L 1.4375 -3.140625 L 2.453125 0 L 2.046875 0 Z M 0.84375 -1.15625 L 1.703125 -1.15625 L 1.28125 -2.59375 Z M 0.84375 -1.15625 "/></g></g></g><g fill="#5b5b5b" fill-opacity="1"><g transform="translate(194.326669, 201.960647)"><g/></g></g><g fill="#5b5b5b" fill-opacity="1"><g transform="translate(196.323522, 201.960647)"><g><path d="M 1.71875 -0.796875 C 1.71875 -0.953125 1.671875 -1.070312 1.578125 -1.15625 C 1.492188 -1.238281 1.34375 -1.316406 1.125 -1.390625 C 0.90625 -1.472656 0.734375 -1.554688 0.609375 -1.640625 C 0.492188 -1.734375 0.40625 -1.832031 0.34375 -1.9375 C 0.289062 -2.050781 0.265625 -2.179688 0.265625 -2.328125 C 0.265625 -2.578125 0.347656 -2.78125 0.515625 -2.9375 C 0.679688 -3.101562 0.898438 -3.1875 1.171875 -3.1875 C 1.347656 -3.1875 1.507812 -3.144531 1.65625 -3.0625 C 1.800781 -2.976562 1.910156 -2.863281 1.984375 -2.71875 C 2.066406 -2.570312 2.109375 -2.410156 2.109375 -2.234375 L 1.71875 -2.234375 C 1.71875 -2.429688 1.671875 -2.582031 1.578125 -2.6875 C 1.484375 -2.789062 1.347656 -2.84375 1.171875 -2.84375 C 1.003906 -2.84375 0.878906 -2.796875 0.796875 -2.703125 C 0.710938 -2.617188 0.671875 -2.5 0.671875 -2.34375 C 0.671875 -2.207031 0.71875 -2.09375 0.8125 -2 C 0.90625 -1.914062 1.050781 -1.835938 1.25 -1.765625 C 1.5625 -1.660156 1.78125 -1.53125 1.90625 -1.375 C 2.039062 -1.226562 2.109375 -1.035156 2.109375 -0.796875 C 2.109375 -0.546875 2.023438 -0.34375 1.859375 -0.1875 C 1.691406 -0.03125 1.46875 0.046875 1.1875 0.046875 C 1 0.046875 0.828125 0.00390625 0.671875 -0.078125 C 0.523438 -0.160156 0.40625 -0.269531 0.3125 -0.40625 C 0.226562 -0.550781 0.1875 -0.71875 0.1875 -0.90625 L 0.578125 -0.90625 C 0.578125 -0.71875 0.628906 -0.566406 0.734375 -0.453125 C 0.847656 -0.347656 1 -0.296875 1.1875 -0.296875 C 1.363281 -0.296875 1.492188 -0.335938 1.578125 -0.421875 C 1.671875 -0.515625 1.71875 -0.640625 1.71875 -0.796875 Z M 1.71875 -0.796875 "/></g></g></g><g fill="#5b5b5b" fill-opacity="1"><g transform="translate(199.600226, 201.960647)"><g><path d="M 1.84375 -1.453125 L 0.734375 -1.453125 L 0.734375 -0.34375 L 2.03125 -0.34375 L 2.03125 0 L 0.34375 0 L 0.34375 -3.140625 L 2.015625 -3.140625 L 2.015625 -2.796875 L 0.734375 -2.796875 L 0.734375 -1.796875 L 1.84375 -1.796875 Z M 1.84375 -1.453125 "/></g></g></g><g fill="#5b5b5b" fill-opacity="1"><g transform="translate(202.781806, 201.960647)"><g><path d="M 1.28125 -1.265625 L 0.734375 -1.265625 L 0.734375 0 L 0.34375 0 L 0.34375 -3.140625 L 1.21875 -3.140625 C 1.53125 -3.140625 1.765625 -3.054688 1.921875 -2.890625 C 2.078125 -2.734375 2.15625 -2.503906 2.15625 -2.203125 C 2.15625 -2.003906 2.113281 -1.832031 2.03125 -1.6875 C 1.945312 -1.539062 1.828125 -1.429688 1.671875 -1.359375 L 2.28125 -0.03125 L 2.28125 0 L 1.84375 0 Z M 0.734375 -1.609375 L 1.21875 -1.609375 C 1.382812 -1.609375 1.515625 -1.660156 1.609375 -1.765625 C 1.710938 -1.878906 1.765625 -2.023438 1.765625 -2.203125 C 1.765625 -2.597656 1.582031 -2.796875 1.21875 -2.796875 L 0.734375 -2.796875 Z M 0.734375 -1.609375 "/></g></g></g><g fill="#5b5b5b" fill-opacity="1"><g transform="translate(206.114719, 201.960647)"><g><path d="M 1.234375 -0.609375 L 1.953125 -3.140625 L 2.390625 -3.140625 L 1.40625 0 L 1.0625 0 L 0.09375 -3.140625 L 0.515625 -3.140625 Z M 1.234375 -0.609375 "/></g></g></g><g fill="#5b5b5b" fill-opacity="1"><g transform="translate(209.577346, 201.960647)"><g><path d="M 0.75 0 L 0.359375 0 L 0.359375 -3.140625 L 0.75 -3.140625 Z M 0.75 0 "/></g></g></g><g fill="#5b5b5b" fill-opacity="1"><g transform="translate(211.667165, 201.960647)"><g><path d="M 2.3125 -1 C 2.289062 -0.664062 2.191406 -0.40625 2.015625 -0.21875 C 1.847656 -0.0390625 1.609375 0.046875 1.296875 0.046875 C 0.984375 0.046875 0.734375 -0.0703125 0.546875 -0.3125 C 0.359375 -0.550781 0.265625 -0.878906 0.265625 -1.296875 L 0.265625 -1.859375 C 0.265625 -2.265625 0.359375 -2.585938 0.546875 -2.828125 C 0.742188 -3.066406 1.003906 -3.1875 1.328125 -3.1875 C 1.640625 -3.1875 1.875 -3.09375 2.03125 -2.90625 C 2.195312 -2.726562 2.289062 -2.472656 2.3125 -2.140625 L 1.90625 -2.140625 C 1.894531 -2.390625 1.84375 -2.566406 1.75 -2.671875 C 1.65625 -2.785156 1.515625 -2.84375 1.328125 -2.84375 C 1.117188 -2.84375 0.957031 -2.757812 0.84375 -2.59375 C 0.726562 -2.425781 0.671875 -2.179688 0.671875 -1.859375 L 0.671875 -1.28125 C 0.671875 -0.957031 0.722656 -0.710938 0.828125 -0.546875 C 0.929688 -0.378906 1.085938 -0.296875 1.296875 -0.296875 C 1.503906 -0.296875 1.648438 -0.34375 1.734375 -0.4375 C 1.828125 -0.539062 1.882812 -0.726562 1.90625 -1 Z M 2.3125 -1 "/></g></g></g><g fill="#5b5b5b" fill-opacity="1"><g transform="translate(215.160059, 201.960647)"><g><path d="M 1.84375 -1.453125 L 0.734375 -1.453125 L 0.734375 -0.34375 L 2.03125 -0.34375 L 2.03125 0 L 0.34375 0 L 0.34375 -3.140625 L 2.015625 -3.140625 L 2.015625 -2.796875 L 0.734375 -2.796875 L 0.734375 -1.796875 L 1.84375 -1.796875 Z M 1.84375 -1.453125 "/></g></g></g><g fill="#5b5b5b" fill-opacity="1"><g transform="translate(218.341639, 201.960647)"><g><path d="M 1.71875 -0.796875 C 1.71875 -0.953125 1.671875 -1.070312 1.578125 -1.15625 C 1.492188 -1.238281 1.34375 -1.316406 1.125 -1.390625 C 0.90625 -1.472656 0.734375 -1.554688 0.609375 -1.640625 C 0.492188 -1.734375 0.40625 -1.832031 0.34375 -1.9375 C 0.289062 -2.050781 0.265625 -2.179688 0.265625 -2.328125 C 0.265625 -2.578125 0.347656 -2.78125 0.515625 -2.9375 C 0.679688 -3.101562 0.898438 -3.1875 1.171875 -3.1875 C 1.347656 -3.1875 1.507812 -3.144531 1.65625 -3.0625 C 1.800781 -2.976562 1.910156 -2.863281 1.984375 -2.71875 C 2.066406 -2.570312 2.109375 -2.410156 2.109375 -2.234375 L 1.71875 -2.234375 C 1.71875 -2.429688 1.671875 -2.582031 1.578125 -2.6875 C 1.484375 -2.789062 1.347656 -2.84375 1.171875 -2.84375 C 1.003906 -2.84375 0.878906 -2.796875 0.796875 -2.703125 C 0.710938 -2.617188 0.671875 -2.5 0.671875 -2.34375 C 0.671875 -2.207031 0.71875 -2.09375 0.8125 -2 C 0.90625 -1.914062 1.050781 -1.835938 1.25 -1.765625 C 1.5625 -1.660156 1.78125 -1.53125 1.90625 -1.375 C 2.039062 -1.226562 2.109375 -1.035156 2.109375 -0.796875 C 2.109375 -0.546875 2.023438 -0.34375 1.859375 -0.1875 C 1.691406 -0.03125 1.46875 0.046875 1.1875 0.046875 C 1 0.046875 0.828125 0.00390625 0.671875 -0.078125 C 0.523438 -0.160156 0.40625 -0.269531 0.3125 -0.40625 C 0.226562 -0.550781 0.1875 -0.71875 0.1875 -0.90625 L 0.578125 -0.90625 C 0.578125 -0.71875 0.628906 -0.566406 0.734375 -0.453125 C 0.847656 -0.347656 1 -0.296875 1.1875 -0.296875 C 1.363281 -0.296875 1.492188 -0.335938 1.578125 -0.421875 C 1.671875 -0.515625 1.71875 -0.640625 1.71875 -0.796875 Z M 1.71875 -0.796875 "/></g></g></g></svg>